<svg xmlns="http://www.w3.org/2000/svg" xmlns:xlink="http://www.w3.org/1999/xlink" version="1.1" id="Layer_1" x="0px" y="0px" width="143.728px" height="103.032px" viewBox="0 0 143.728 103.032" enable-background="new 0 0 143.728 103.032" xml:space="preserve"><g><path fill="#757B82" d="M92.688 52.042c0.488-2.318 0.934-5.188 0.934-7.523 0-4.513-0.896-8.792-2.511-12.674 -2.807-6.744-7.857-12.215-14.447-15.413 -4.029-1.955-8.614-3.081-13.64-3.081 -0.189 0-0.367 0.023-0.554 0.026 -9.4 0.152-17.271 4.115-22.617 10.326 -3.734 4.338-6.224 9.761-7.124 15.763 -0.248 1.648-0.409 3.329-0.409 5.053v53.486h15.411c0 0 0-55.337 0-55.362 0-4.086 1.911-7.999 4.945-10.798 2.679-2.471 6.759-4.108 10.7-4.162 9.115 0.352 16.407 7.833 16.407 17.035 0 0.554-0.031 1.101-0.084 1.64 -0.115 1.196-0.348 2.358-0.697 3.471 -2.173 6.929-8.646 11.958-16.291 11.958 -0.593 0-1.177-0.033-1.76-0.092l-7.226 11.498c3.366 1.707 7.17 2.609 11.385 2.609 6.968 0 13.287-2.802 18.226-7.357 3.939-3.762 6.959-8.471 8.69-13.769l0.684-2.384c0.011-0.041 0.021-0.082 0.03-0.125 -0.001-0.004-0.001-0.004-0.004-0.006C92.721 52.121 92.705 52.08 92.688 52.042z"/><g><path fill="#757B82" d="M90.117 87.527c-2.838 0-5.141 2.421-5.141 5.38 0 2.997 2.303 5.341 5.24 5.341 2.362 0 4.111-1.232 4.824-3.416h-1.788c-0.556 1.192-1.587 1.888-3.036 1.888 -1.688 0-3.315-1.252-3.533-3.376h8.596C95.299 89.712 92.757 87.527 90.117 87.527zM86.781 91.834c0.438-1.744 1.927-2.778 3.336-2.778 1.489 0 2.879 1.111 3.296 2.778H86.781z"/><path fill="#757B82" d="M101.373 87.527c-1.243 0-2.322 0.441-3.087 1.213l-1.181-0.617v3.672 3.612 2.603h1.668v-6.273c0-1.528 1.013-2.642 2.6-2.642 1.569 0 2.581 1.113 2.581 2.642v6.273h1.669v-6.215C105.623 89.215 103.815 87.527 101.373 87.527z"/><path fill="#757B82" d="M112.651 89.135c1.329 0 2.381 0.693 2.956 1.807h1.808c-0.696-2.064-2.482-3.414-4.764-3.414 -2.821 0-5.123 2.421-5.123 5.38 0 2.956 2.302 5.341 5.123 5.341 2.281 0 4.088-1.351 4.764-3.416h-1.808c-0.556 1.113-1.606 1.807-2.956 1.807 -1.888 0-3.437-1.668-3.437-3.731C109.215 90.843 110.764 89.135 112.651 89.135z"/><path fill="#757B82" d="M126.09 87.785v6.193c0 1.529-1.012 2.641-2.581 2.641 -1.587 0-2.601-1.111-2.601-2.641v-6.193h-1.667v6.193c0 2.582 1.865 4.27 4.268 4.27 1.112 0 1.965-0.357 2.581-1.013v1.528c0 1.568-1.012 2.641-2.581 2.641 -1.017 0-1.743-0.397-2.186-1.084l-0.863 1.537c0.766 0.748 1.825 1.175 3.049 1.175 2.403 0 4.269-1.589 4.269-4.269V87.785H126.09z"/><path fill="#757B82" d="M69.653 88.959c-0.907-0.889-2.133-1.432-3.517-1.432 -2.838 0-5.141 2.301-5.141 5.38 0 3.058 2.283 5.36 5.101 5.36 1.451 0 2.741-0.734 3.534-1.846v1.588h1.628v-2.603 -2.5 -4.784L69.653 88.959 69.653 88.959zM66.136 96.699c-1.906 0-3.455-1.646-3.455-3.792 0-2.144 1.549-3.832 3.455-3.832 1.866 0 3.454 1.707 3.454 3.832C69.589 95.012 68.022 96.699 66.136 96.699z"/><path fill="#757B82" d="M81.623 88.959c-0.906-0.889-2.133-1.432-3.517-1.432 -2.839 0-5.142 2.301-5.142 5.38 0 3.058 2.283 5.36 5.103 5.36 1.47 0 2.699-0.654 3.493-1.707v0.973c0 1.846-0.952 3.871-3.593 3.871 -0.624 0-1.892-0.166-2.674-1.155l-0.856 1.529c0.885 0.796 2.113 1.254 3.53 1.254 3.157 0 5.261-2.224 5.261-5.499v-2.126 -2.5 -4.784L81.623 88.959 81.623 88.959zM78.106 96.699c-1.905 0-3.454-1.646-3.454-3.792 0-2.144 1.549-3.832 3.454-3.832 1.866 0 3.454 1.707 3.454 3.832C81.561 95.012 79.993 96.699 78.106 96.699z"/></g><path fill="#00B3E6" d="M128.671 17.876l10.773-17.873 -0.002-0.002L139.444 0h-0.002H123.65h-21.78l-8.758 13.552h15.988 6.381l-9.213 15.288c1.928-0.763 4.027-1.187 6.229-1.187 3.222 0 6.233 0.899 8.799 2.461 4.883 2.974 8.144 8.347 8.144 14.482 0 9.357-7.585 16.943-16.942 16.943 -4.761 0-9.059-1.965-12.136-5.125l-7.583 12.396c5.377 4.385 12.24 7.017 19.719 7.017 17.248 0 31.23-13.983 31.23-31.231C143.728 33.27 137.698 23.351 128.671 17.876z"/><g><path fill="none" d="M37.398 13.552h-3.707c1.128 0.092 2.287 0.217 3.479 0.379L37.398 13.552z"/><path fill="#757B82" d="M33.691 13.552c-3.138-0.256-6.037-0.248-8.703 0 -6.702 0.625-11.946 2.752-15.845 5.962L0 15.537v60.302h15.875V41.048c0-8.248 3.497-13.481 12.398-12.47L29.293 27l7.876-13.068C35.979 13.769 34.82 13.645 33.691 13.552z"/></g></g></svg>