<svg xmlns="http://www.w3.org/2000/svg" xmlns:xlink="http://www.w3.org/1999/xlink" version="1.1" id="Layer_1" x="0px" y="0px" width="46.565px" height="33.381px" viewBox="0 0 46.565 33.381" enable-background="new 0 0 46.565 33.381" xml:space="preserve"><g><path fill="#FFFFFF" d="M30.029 16.86c0.158-0.751 0.303-1.681 0.303-2.438 0-1.462-0.291-2.849-0.814-4.105 -0.909-2.185-2.545-3.958-4.681-4.993 -1.305-0.634-2.79-0.999-4.418-0.999 -0.062 0-0.119 0.008-0.18 0.01 -3.045 0.049-5.595 1.332-7.327 3.345 -1.211 1.405-2.017 3.163-2.308 5.107 -0.081 0.534-0.133 1.078-0.133 1.636v17.33h4.993c0 0 0-17.929 0-17.937 0-1.325 0.619-2.591 1.602-3.499 0.868-0.801 2.189-1.33 3.467-1.348 2.953 0.113 5.315 2.537 5.315 5.518 0 0.181-0.01 0.357-0.027 0.531 -0.037 0.39-0.113 0.766-0.225 1.126 -0.705 2.244-2.802 3.874-5.279 3.874 -0.192 0-0.382-0.011-0.57-0.03l-2.341 3.725c1.091 0.554 2.323 0.846 3.688 0.846 2.258 0 4.306-0.907 5.906-2.384 1.276-1.219 2.254-2.744 2.815-4.461l0.222-0.772c0.003-0.013 0.007-0.025 0.009-0.04 0-0.001 0-0.001 0-0.001C30.039 16.886 30.034 16.873 30.029 16.86z"/><g><path fill="#FFFFFF" d="M29.197 28.357c-0.92 0-1.666 0.784-1.666 1.743 0 0.971 0.746 1.729 1.697 1.729 0.765 0 1.332-0.398 1.562-1.106h-0.58c-0.179 0.386-0.514 0.611-0.982 0.611 -0.547 0-1.074-0.406-1.145-1.094h2.785C30.875 29.065 30.051 28.357 29.197 28.357zM28.115 29.753c0.142-0.565 0.625-0.901 1.082-0.901 0.481 0 0.932 0.36 1.066 0.901H28.115z"/><path fill="#FFFFFF" d="M32.843 28.357c-0.403 0-0.753 0.144-1.001 0.394L31.46 28.55v1.19 1.17 0.843H32v-2.031c0-0.497 0.327-0.857 0.843-0.857 0.507 0 0.836 0.36 0.836 0.857v2.031h0.539V29.74C34.218 28.904 33.633 28.357 32.843 28.357z"/><path fill="#FFFFFF" d="M36.496 28.879c0.432 0 0.771 0.225 0.959 0.585h0.585c-0.226-0.669-0.805-1.106-1.544-1.106 -0.913 0-1.659 0.784-1.659 1.743 0 0.958 0.746 1.729 1.659 1.729 0.739 0 1.325-0.437 1.544-1.106h-0.585c-0.181 0.36-0.521 0.586-0.959 0.586 -0.611 0-1.112-0.54-1.112-1.209C35.383 29.431 35.884 28.879 36.496 28.879z"/><path fill="#FFFFFF" d="M40.85 28.441v2.006c0 0.496-0.328 0.856-0.836 0.856 -0.515 0-0.843-0.36-0.843-0.856v-2.006h-0.54v2.006c0 0.837 0.604 1.383 1.383 1.383 0.36 0 0.636-0.115 0.836-0.327v0.495c0 0.507-0.328 0.854-0.836 0.854 -0.329 0-0.565-0.128-0.708-0.351L39.027 33c0.247 0.241 0.592 0.381 0.987 0.381 0.778 0 1.382-0.516 1.382-1.383v-3.557H40.85z"/><path fill="#FFFFFF" d="M22.565 28.822c-0.293-0.29-0.691-0.465-1.139-0.465 -0.919 0-1.666 0.746-1.666 1.743 0 0.989 0.74 1.735 1.652 1.735 0.47 0 0.888-0.236 1.146-0.597v0.514h0.527V30.91v-0.81V28.55L22.565 28.822 22.565 28.822zM21.426 31.329c-0.618 0-1.119-0.534-1.119-1.229 0-0.693 0.501-1.242 1.119-1.242 0.604 0 1.119 0.553 1.119 1.242C22.545 30.782 22.037 31.329 21.426 31.329z"/><path fill="#FFFFFF" d="M26.444 28.822c-0.294-0.29-0.691-0.465-1.14-0.465 -0.92 0-1.666 0.746-1.666 1.743 0 0.989 0.74 1.735 1.653 1.735 0.476 0 0.875-0.211 1.132-0.552V31.6c0 0.597-0.308 1.253-1.164 1.253 -0.202 0-0.612-0.054-0.866-0.373l-0.277 0.495c0.287 0.258 0.685 0.406 1.144 0.406 1.023 0 1.705-0.721 1.705-1.781V30.91v-0.81V28.55L26.444 28.822 26.444 28.822zM25.304 31.329c-0.618 0-1.119-0.534-1.119-1.229 0-0.693 0.501-1.242 1.119-1.242 0.605 0 1.119 0.553 1.119 1.242C26.423 30.782 25.916 31.329 25.304 31.329z"/></g><path fill="#FFFFFF" d="M41.687 5.792l3.49-5.79L45.176 0h0.001 -0.001H40.06h-7.058l-2.837 4.392h5.181 2.066l-2.984 4.952c0.624-0.246 1.306-0.384 2.019-0.384 1.043 0 2.02 0.291 2.85 0.797 1.582 0.963 2.639 2.704 2.639 4.691 0 3.032-2.458 5.49-5.488 5.49 -1.543 0-2.936-0.638-3.933-1.662l-2.456 4.017c1.742 1.42 3.966 2.273 6.389 2.273 5.588 0 10.118-4.53 10.118-10.118C46.565 10.779 44.612 7.565 41.687 5.792z"/><g><path fill="#FFFFFF" d="M12.116 4.392h-1.201c0.365 0.028 0.741 0.069 1.127 0.122L12.116 4.392z"/><path fill="#FFFFFF" d="M10.915 4.392c-1.017-0.084-1.956-0.081-2.82 0 -2.171 0.202-3.87 0.892-5.132 1.93L0 5.033v19.536h5.142V13.299c0-2.673 1.133-4.367 4.018-4.04l0.33-0.511 2.552-4.234C11.656 4.461 11.28 4.42 10.915 4.392z"/></g></g></svg>