<svg version="1.1" id="Layer_1" xmlns="http://www.w3.org/2000/svg" xmlns:xlink="http://www.w3.org/1999/xlink" x="0px" y="0px" viewBox="0 0 82 82" enable-background="new 0 0 82 82" xml:space="preserve"><g><path fill-rule="evenodd" clip-rule="evenodd" d="M41,82C18.4,82,0,63.6,0,41C0,18.4,18.4,0,41,0c22.6,0,41,18.4,41,41 C82,63.6,63.6,82,41,82z M41,8.5C23.1,8.5,8.5,23.1,8.5,41S23.1,73.5,41,73.5c17.9,0,32.5-14.6,32.5-32.5S58.9,8.5,41,8.5z M41,66.2c-13.9,0-25.1-11.3-25.1-25.1c0-13.9,11.3-25.1,25.1-25.1S66.2,27.1,66.2,41C66.2,54.9,54.9,66.2,41,66.2z M41,23.8 c-9.5,0-17.2,7.7-17.2,17.2c0,9.5,7.7,17.2,17.2,17.2c9.5,0,17.2-7.7,17.2-17.2C58.2,31.5,50.5,23.8,41,23.8z M41,50.8 c-5.4,0-9.8-4.4-9.8-9.8s4.4-9.8,9.8-9.8c5.4,0,9.8,4.4,9.8,9.8S46.4,50.8,41,50.8z"/></g></svg>
