<svg class="agency-yeti" xmlns="http://www.w3.org/2000/svg" viewBox="0 0 241.9 262.2"><style>.agency-yeti .st0{fill:#f3e8d4}.agency-yeti .st1{fill:#d8c6a3}.agency-yeti .st2{fill:#eeddc2}.agency-yeti .st3{fill:#bd4e9c}.agency-yeti .st4{fill:#659ac9}.agency-yeti .st5{fill:#518cc0}.agency-yeti .st6{fill:#304c66}.agency-yeti .st7{fill:#963436}.agency-yeti .st8{fill:#efdec3}</style><path class="st0" d="M50.2 90.7h10.1v10.1H50.2z"/><path d="M50.3 90.7h10.1v10.1H50.3z"/><path d="M40.2 90.7h10.1v10.1H40.2z"/><path class="st0" d="M50.2 121h10.1v10.1H50.2z"/><path class="st1" d="M50.3 100.8h10.1v10.1H50.3z"/><path class="st2" d="M40.2 121h10.1v10.1H40.2zM40.2 110.9h10.1V121H40.2zM40.2 100.8h10.1v10.1H40.2z"/><path class="st0" d="M30.2 121h10.1v10.1H30.2zM30.2 110.9h10.1V121H30.2z"/><path d="M30.2 100.8h10.1v10.1H30.2z"/><path class="st2" d="M20.1 121h10.1v10.1H20.1z"/><path class="st2" d="M10.1 121h10.1v10.1H10.1z"/><path d="M20.1 110.9h10.1V121H20.1zM0 121h10.1v10.1H0zM10 110.9h10.1V121H10z"/><path class="st3" d="M40.2 151.2h10.1v10.1H40.2z"/><path class="st4" d="M40.3 151.2h10.1v10.1H40.3z"/><path d="M40.2 141.2h10.1v10.1H40.2z"/><path class="st0" d="M30.2 151.2h10.1v10.1H30.2z"/><path class="st0" d="M30.2 141.2h10.1v10.1H30.2zM40.2 131.1h10.1v10.1H40.2z"/><path class="st5" d="M20.2 151.2h10.1v10.1H20.2z"/><path class="st0" d="M20.2 141.2h10.1v10.1H20.2zM30.2 131.1h10.1v10.1H30.2z"/><path class="st2" d="M10.1 151.2h10.1v10.1H10.1z"/><path class="st2" d="M10.1 141.2h10.1v10.1H10.1zM20.1 131.1h10.1v10.1H20.1z"/><path d="M0 151.2h10.1v10.1H0z"/><path d="M0 141.2h10.1v10.1H0zM10 131.1h10.1v10.1H10zM40.3 171.4h10.1v10.1H40.3zM30.2 181.5h10.1v10.1H30.2z"/><path class="st4" d="M30.2 171.4h10.1v10.1H30.2zM30.2 161.3h10.1v10.1H30.2z"/><path d="M20.2 181.5h10.1v10.1H20.2z"/><path class="st5" d="M20.2 171.4h10.1v10.1H20.2zM20.2 161.3h10.1v10.1H20.2zM40.3 161.3h10.1v10.1H40.3z"/><path d="M10.1 181.5h10.1v10.1H10.1zM10.1 171.4h10.1v10.1H10.1z"/><path class="st5" d="M10.1 161.3h10.1v10.1H10.1z"/><path d="M60.4 20.2h10.1v10.1H60.4z"/><path class="st2" d="M70.5 20.2h10.1v10.1H70.5z"/><path class="st0" d="M80.6 20.2h10.1v10.1H80.6zM90.7 20.2h10.1v10.1H90.7z"/><path class="st0" d="M100.7 20.2h10.1v10.1h-10.1zM110.8 20.2h10.1v10.1h-10.1zM120.9 20.2H131v10.1h-10.1zM131 20.2h10.1v10.1H131zM141.1 20.2h10.1v10.1h-10.1z"/><path class="st2" d="M151.2 20.2h10.1v10.1h-10.1z"/><path d="M161.2 20.2h10.1v10.1h-10.1zM70.5 10.1h10.1v10.1H70.5z"/><path class="st2" d="M80.6 10.1h10.1v10.1H80.6zM90.7 10.1h10.1v10.1H90.7z"/><path class="st2" d="M100.7 10.1h10.1v10.1h-10.1zM110.8 10.1h10.1v10.1h-10.1zM120.9 10.1H131v10.1h-10.1zM131 10.1h10.1v10.1H131zM141.1 10.1h10.1v10.1h-10.1z"/><path d="M151.2 10.1h10.1v10.1h-10.1zM80.6 0h10.1v10.1H80.6zM90.7 0h10.1v10.1H90.7z"/><path d="M100.7 0h10.1v10.1h-10.1zM110.8 0h10.1v10.1h-10.1zM120.9 0H131v10.1h-10.1zM131 0h10.1v10.1H131zM141.1 0h10.1v10.1h-10.1zM60.4 50.4h10.1v10.1H60.4z"/><path class="st5" d="M70.5 50.4h10.1v10.1H70.5z"/><path class="st4" d="M80.6 50.4h10.1v10.1H80.6zM90.7 50.4h10.1v10.1H90.7z"/><path class="st4" d="M100.7 50.4h10.1v10.1h-10.1zM110.8 50.4h10.1v10.1h-10.1zM120.9 50.4H131v10.1h-10.1zM131 50.4h10.1v10.1H131zM141.1 50.4h10.1v10.1h-10.1z"/><path class="st2" d="M151.2 50.4h10.1v10.1h-10.1z"/><path class="st0" d="M161.2 50.4h10.1v10.1h-10.1z"/><path class="st2" d="M60.4 40.3h10.1v10.1H60.4zM70.5 40.3h10.1v10.1H70.5z"/><path class="st4" d="M90.7 40.3h10.1v10.1H90.7z"/><path class="st2" d="M80.6 40.3h10.1v10.1H80.6zM100.7 40.3h10.1v10.1h-10.1z"/><path class="st0" d="M110.8 40.3h10.1v10.1h-10.1z"/><path class="st4" d="M120.9 40.3H131v10.1h-10.1zM131 40.3h10.1v10.1H131zM141.1 40.3h10.1v10.1h-10.1z"/><path class="st2" d="M151.2 40.3h10.1v10.1h-10.1z"/><path class="st0" d="M161.2 40.3h10.1v10.1h-10.1z"/><path class="st2" d="M60.4 30.2h10.1v10.1H60.4z"/><path d="M50.3 50.4h10.1v10.1H50.3zM50.3 40.3h10.1v10.1H50.3zM50.3 30.2h10.1v10.1H50.3z"/><path class="st0" d="M70.5 30.2h10.1v10.1H70.5zM80.6 30.2h10.1v10.1H80.6zM90.7 30.2h10.1v10.1H90.7z"/><path class="st0" d="M100.7 30.2h10.1v10.1h-10.1zM110.8 30.2h10.1v10.1h-10.1zM120.9 30.2H131v10.1h-10.1zM131 30.2h10.1v10.1H131zM141.1 30.2h10.1v10.1h-10.1zM151.2 30.2h10.1v10.1h-10.1z"/><path class="st0" d="M161.2 30.2h10.1v10.1h-10.1z"/><path d="M171.3 50.4h10.1v10.1h-10.1zM171.3 40.3h10.1v10.1h-10.1zM171.3 30.2h10.1v10.1h-10.1zM60.4 80.7h10.1v10.1H60.4z"/><path class="st0" d="M70.5 80.7h10.1v10.1H70.5zM80.6 80.7h10.1v10.1H80.6zM90.7 80.7h10.1v10.1H90.7z"/><path class="st0" d="M100.7 80.7h10.1v10.1h-10.1zM110.8 80.7h10.1v10.1h-10.1zM120.9 80.7H131v10.1h-10.1zM131 80.7h10.1v10.1H131zM141.1 80.7h10.1v10.1h-10.1zM151.2 80.7h10.1v10.1h-10.1z"/><path class="st0" d="M161.2 80.7h10.1v10.1h-10.1z"/><path d="M60.4 70.6h10.1v10.1H60.4z"/><path class="st5" d="M70.5 70.6h10.1v10.1H70.5z"/><path class="st4" d="M80.6 70.6h10.1v10.1H80.6z"/><path class="st5" d="M90.7 70.6h10.1v10.1H90.7z"/><path class="st6" d="M100.7 70.6h10.1v10.1h-10.1z"/><path class="st5" d="M110.8 70.6h10.1v10.1h-10.1z"/><path class="st6" d="M120.9 70.6H131v10.1h-10.1z"/><path class="st5" d="M131 70.6h10.1v10.1H131z"/><path class="st4" d="M141.1 70.6h10.1v10.1h-10.1zM151.2 70.6h10.1v10.1h-10.1z"/><path class="st2" d="M161.2 70.6h10.1v10.1h-10.1z"/><path d="M60.4 60.5h10.1v10.1H60.4z"/><path class="st5" d="M70.5 60.5h10.1v10.1H70.5z"/><path d="M80.6 60.5h10.1v10.1H80.6z"/><path class="st4" d="M90.7 60.5h10.1v10.1H90.7z"/><path class="st4" d="M100.7 60.5h10.1v10.1h-10.1zM110.8 60.5h10.1v10.1h-10.1zM120.9 60.5H131v10.1h-10.1zM131 60.5h10.1v10.1H131z"/><path d="M141.1 60.5h10.1v10.1h-10.1z"/><path class="st4" d="M151.2 60.5h10.1v10.1h-10.1z"/><path class="st2" d="M161.2 60.5h10.1v10.1h-10.1z"/><path d="M171.3 80.7h10.1v10.1h-10.1zM171.3 70.6h10.1v10.1h-10.1zM171.3 60.5h10.1v10.1h-10.1z"/><path class="st0" d="M60.4 110.9h10.1V121H60.4zM50.3 110.9h10.1V121H50.3zM70.5 110.9h10.1V121H70.5zM80.6 110.9h10.1V121H80.6zM90.7 110.9h10.1V121H90.7z"/><path class="st0" d="M100.7 110.9h10.1V121h-10.1zM110.8 110.9h10.1V121h-10.1zM120.9 110.9H131V121h-10.1zM131 110.9h10.1V121H131zM141.1 110.9h10.1V121h-10.1zM151.2 110.9h10.1V121h-10.1z"/><path class="st0" d="M161.2 110.9h10.1V121h-10.1zM60.4 100.8h10.1v10.1H60.4zM70.5 100.8h10.1v10.1H70.5z"/><path class="st4" d="M80.6 100.8h10.1v10.1H80.6zM90.7 100.8h10.1v10.1H90.7z"/><path class="st4" d="M100.7 100.8h10.1v10.1h-10.1zM110.8 100.8h10.1v10.1h-10.1zM120.9 100.8H131v10.1h-10.1zM131 100.8h10.1v10.1H131zM141.1 100.8h10.1v10.1h-10.1z"/><path class="st0" d="M151.2 100.8h10.1v10.1h-10.1z"/><path class="st0" d="M161.2 100.8h10.1v10.1h-10.1zM60.4 90.7h10.1v10.1H60.4z"/><path class="st4" d="M70.5 90.7h10.1v10.1H70.5z"/><path class="st6" d="M80.6 90.7h10.1v10.1H80.6zM90.7 90.7h10.1v10.1H90.7z"/><path class="st7" d="M100.7 90.7h10.1v10.1h-10.1zM110.8 90.7h10.1v10.1h-10.1zM120.9 90.7H131v10.1h-10.1z"/><path class="st6" d="M131 90.7h10.1v10.1H131zM141.1 90.7h10.1v10.1h-10.1z"/><path class="st4" d="M151.2 90.7h10.1v10.1h-10.1z"/><path class="st4" d="M151.2 80.7h10.1v10.1h-10.1z"/><path class="st0" d="M161.2 90.7h10.1v10.1h-10.1zM171.3 110.9h10.1V121h-10.1z"/><path class="st2" d="M171.3 100.8h10.1v10.1h-10.1zM171.3 90.7h10.1v10.1h-10.1zM181.4 110.9h10.1V121h-10.1zM181.4 100.8h10.1v10.1h-10.1z"/><path d="M181.4 90.7h10.1v10.1h-10.1z"/><path class="st2" d="M191.5 110.9h10.1V121h-10.1z"/><path d="M191.5 100.8h10.1v10.1h-10.1zM201.6 110.9h10.1V121h-10.1z"/><path class="st0" d="M60.4 141.2h10.1v10.1H60.4zM70.5 141.2h10.1v10.1H70.5zM80.6 141.2h10.1v10.1H80.6zM90.7 141.2h10.1v10.1H90.7z"/><path class="st0" d="M100.7 141.2h10.1v10.1h-10.1zM131 141.2h10.1v10.1H131zM141.1 141.2h10.1v10.1h-10.1zM151.2 141.2h10.1v10.1h-10.1z"/><path class="st0" d="M161.2 141.2h10.1v10.1h-10.1zM60.4 131.1h10.1v10.1H60.4zM70.5 131.1h10.1v10.1H70.5zM80.6 131.1h10.1v10.1H80.6zM90.7 131.1h10.1v10.1H90.7z"/><path class="st0" d="M100.7 131.1h10.1v10.1h-10.1zM131 131.1h10.1v10.1H131zM141.1 131.1h10.1v10.1h-10.1zM151.2 131.1h10.1v10.1h-10.1z"/><path class="st0" d="M161.2 131.1h10.1v10.1h-10.1zM60.4 121h10.1v10.1H60.4zM70.5 121h10.1v10.1H70.5zM80.6 121h10.1v10.1H80.6zM90.7 121h10.1v10.1H90.7z"/><path class="st0" d="M100.7 121h10.1v10.1h-10.1zM120.9 141.2H131v10.1h-10.1zM120.9 131.1H131v10.1h-10.1zM120.9 121H131v10.1h-10.1z"/><path class="st1" d="M110.8 141.2h10.1v10.1h-10.1zM110.8 131.1h10.1v10.1h-10.1zM110.8 121h10.1v10.1h-10.1z"/><path class="st0" d="M131 121h10.1v10.1H131zM141.1 121h10.1v10.1h-10.1zM151.2 121h10.1v10.1h-10.1z"/><path class="st0" d="M161.2 121h10.1v10.1h-10.1zM171.3 141.2h10.1v10.1h-10.1zM171.3 131.1h10.1v10.1h-10.1zM171.3 121h10.1v10.1h-10.1z"/><path class="st2" d="M181.4 141.2h10.1v10.1h-10.1z"/><path class="st0" d="M181.4 131.1h10.1v10.1h-10.1zM181.4 121h10.1v10.1h-10.1z"/><path class="st2" d="M191.5 141.2h10.1v10.1h-10.1zM191.5 131.1h10.1v10.1h-10.1z"/><path class="st0" d="M191.5 121h10.1v10.1h-10.1zM201.6 141.2h10.1v10.1h-10.1zM201.6 131.1h10.1v10.1h-10.1zM201.6 121h10.1v10.1h-10.1zM211.7 141.2h10.1v10.1h-10.1z"/><path d="M211.7 131.1h10.1v10.1h-10.1zM211.7 121h10.1v10.1h-10.1zM221.7 141.2h10.1v10.1h-10.1z"/><path class="st2" d="M60.4 171.4h10.1v10.1H60.4z"/><path class="st0" d="M70.5 171.4h10.1v10.1H70.5zM80.6 171.4h10.1v10.1H80.6zM90.7 171.4h10.1v10.1H90.7z"/><path class="st0" d="M100.7 171.4h10.1v10.1h-10.1zM110.8 171.4h10.1v10.1h-10.1zM120.9 171.4H131v10.1h-10.1zM131 171.4h10.1v10.1H131zM141.1 171.4h10.1v10.1h-10.1zM151.2 171.4h10.1v10.1h-10.1z"/><path class="st0" d="M161.2 171.4h10.1v10.1h-10.1z"/><path class="st2" d="M60.4 161.3h10.1v10.1H60.4zM60.4 141.8h10.1v10.1H60.4z"/><path class="st0" d="M70.5 161.3h10.1v10.1H70.5zM80.6 161.3h10.1v10.1H80.6zM90.7 161.3h10.1v10.1H90.7z"/><path class="st0" d="M100.7 161.3h10.1v10.1h-10.1zM110.8 161.3h10.1v10.1h-10.1zM120.9 161.3H131v10.1h-10.1zM131 161.3h10.1v10.1H131zM141.1 161.3h10.1v10.1h-10.1zM151.2 161.3h10.1v10.1h-10.1z"/><path class="st0" d="M161.2 161.3h10.1v10.1h-10.1z"/><path class="st1" d="M60.4 151.2h10.1v10.1H60.4zM70.5 151.2h10.1v10.1H70.5zM80.6 151.2h10.1v10.1H80.6zM90.7 151.2h10.1v10.1H90.7z"/><path class="st1" d="M100.7 151.2h10.1v10.1h-10.1zM120.9 151.2H131v10.1h-10.1z"/><path class="st0" d="M110.8 151.2h10.1v10.1h-10.1z"/><path class="st1" d="M131 151.2h10.1v10.1H131zM141.1 151.2h10.1v10.1h-10.1zM151.2 151.2h10.1v10.1h-10.1z"/><path class="st1" d="M161.2 151.2h10.1v10.1h-10.1zM171.3 171.4h10.1v10.1h-10.1zM171.3 161.3h10.1v10.1h-10.1zM191.5 151.2h10.1v10.1h-10.1z"/><path class="st0" d="M171.3 151.2h10.1v10.1h-10.1z"/><path class="st2" d="M181.4 171.4h10.1v10.1h-10.1zM181.4 161.3h10.1v10.1h-10.1zM181.4 151.2h10.1v10.1h-10.1z"/><path d="M191.5 171.4h10.1v10.1h-10.1zM191.5 161.3h10.1v10.1h-10.1z"/><path class="st2" d="M201.6 171.4h10.1v10.1h-10.1zM201.6 161.3h10.1v10.1h-10.1zM201.6 151.2h10.1v10.1h-10.1zM221.7 151.2h10.1v10.1h-10.1z"/><path class="st0" d="M211.7 171.4h10.1v10.1h-10.1zM211.7 161.3h10.1v10.1h-10.1zM211.7 151.2h10.1v10.1h-10.1z"/><path d="M221.7 171.4h10.1v10.1h-10.1zM221.7 161.3h10.1v10.1h-10.1zM231.8 151.2h10.1v10.1h-10.1zM60.4 201.7h10.1v10.1H60.4z"/><path class="st2" d="M70.5 201.7h10.1v10.1H70.5zM80.6 201.7h10.1v10.1H80.6z"/><path class="st0" d="M90.7 201.7h10.1v10.1H90.7z"/><path class="st1" d="M100.7 201.7h10.1v10.1h-10.1zM110.8 201.7h10.1v10.1h-10.1zM120.9 201.7H131v10.1h-10.1z"/><path class="st0" d="M131 201.7h10.1v10.1H131zM141.1 201.7h10.1v10.1h-10.1zM151.2 201.7h10.1v10.1h-10.1z"/><path class="st1" d="M161.2 201.7h10.1v10.1h-10.1z"/><path d="M60.4 191.6h10.1v10.1H60.4z"/><path class="st2" d="M70.5 191.6h10.1v10.1H70.5z"/><path class="st0" d="M80.6 191.6h10.1v10.1H80.6zM90.7 191.6h10.1v10.1H90.7z"/><path class="st0" d="M100.7 191.6h10.1v10.1h-10.1zM110.8 191.6h10.1v10.1h-10.1zM120.9 191.6H131v10.1h-10.1zM131 191.6h10.1v10.1H131zM141.1 191.6h10.1v10.1h-10.1zM151.2 191.6h10.1v10.1h-10.1z"/><path class="st1" d="M161.2 191.6h10.1v10.1h-10.1zM60.4 181.5h10.1v10.1H60.4z"/><path class="st2" d="M70.5 181.5h10.1v10.1H70.5z"/><path class="st0" d="M80.6 181.5h10.1v10.1H80.6zM90.7 181.5h10.1v10.1H90.7z"/><path class="st0" d="M100.7 181.5h10.1v10.1h-10.1zM110.8 181.5h10.1v10.1h-10.1zM120.9 181.5H131v10.1h-10.1zM131 181.5h10.1v10.1H131zM141.1 181.5h10.1v10.1h-10.1zM151.2 181.5h10.1v10.1h-10.1z"/><path class="st1" d="M161.2 181.5h10.1v10.1h-10.1z"/><path d="M171.3 201.7h10.1v10.1h-10.1z"/><path class="st2" d="M171.3 191.6h10.1v10.1h-10.1zM171.3 181.5h10.1v10.1h-10.1z"/><path class="st5" d="M181.4 191.6h10.1v10.1h-10.1zM181.4 201.7h10.1v10.1h-10.1z"/><path d="M181.4 181.5h10.1v10.1h-10.1z"/><path class="st2" d="M191.5 191.6h10.1v10.1h-10.1zM191.5 181.5h10.1v10.1h-10.1z"/><path class="st0" d="M201.6 181.5h10.1v10.1h-10.1z"/><path class="st2" d="M211.7 191.6h10.1v10.1h-10.1z"/><path class="st0" d="M211.7 181.5h10.1v10.1h-10.1z"/><path d="M221.7 191.6h10.1v10.1h-10.1zM221.7 181.5h10.1v10.1h-10.1zM70.5 231.9h10.1V242H70.5z"/><path class="st2" d="M80.6 231.9h10.1V242H80.6z"/><path class="st0" d="M90.7 231.9h10.1V242H90.7z"/><path d="M100.7 231.9h10.1V242h-10.1zM131 231.9h10.1V242H131z"/><path class="st2" d="M141.1 231.9h10.1V242h-10.1z"/><path class="st0" d="M151.2 231.9h10.1V242h-10.1z"/><path d="M161.2 231.9h10.1V242h-10.1zM80.6 221.8h10.1v10.1H80.6z"/><path class="st0" d="M90.7 221.8h10.1v10.1H90.7z"/><path d="M100.7 221.8h10.1v10.1h-10.1zM131 221.8h10.1v10.1H131z"/><path class="st2" d="M141.1 221.8h10.1v10.1h-10.1z"/><path d="M151.2 221.8h10.1v10.1h-10.1zM60.4 211.7h10.1v10.1H60.4zM70.5 211.7h10.1v10.1H70.5z"/><path class="st2" d="M80.6 211.7h10.1v10.1H80.6zM90.7 211.7h10.1v10.1H90.7z"/><path class="st1" d="M100.7 211.7h10.1v10.1h-10.1z"/><path d="M110.8 211.7h10.1v10.1h-10.1zM120.9 211.7H131v10.1h-10.1z"/><path class="st1" d="M131 211.7h10.1v10.1H131z"/><path class="st2" d="M141.1 211.7h10.1v10.1h-10.1zM151.2 211.7h10.1v10.1h-10.1z"/><path d="M161.2 211.7h10.1v10.1h-10.1zM171.3 211.7h10.1v10.1h-10.1zM191.5 221.8h10.1v10.1h-10.1z"/><path class="st5" d="M191.5 211.7h10.1v10.1h-10.1z"/><path class="st5" d="M191.5 201.7h10.1v10.1h-10.1z"/><path d="M201.6 221.8h10.1v10.1h-10.1z"/><path class="st4" d="M201.6 211.7h10.1v10.1h-10.1z"/><path class="st4" d="M201.6 201.7h10.1v10.1h-10.1zM201.6 191.6h10.1v10.1h-10.1z"/><path d="M211.7 221.8h10.1v10.1h-10.1zM211.7 211.7h10.1v10.1h-10.1z"/><path d="M211.7 201.7h10.1v10.1h-10.1zM60.4 252.1h10.1v10.1H60.4zM70.5 252.1h10.1v10.1H70.5zM80.6 252.1h10.1v10.1H80.6zM90.7 252.1h10.1v10.1H90.7z"/><path d="M100.7 252.1h10.1v10.1h-10.1zM131 252.1h10.1v10.1H131zM141.1 252.1h10.1v10.1h-10.1zM151.2 252.1h10.1v10.1h-10.1z"/><path d="M161.2 252.1h10.1v10.1h-10.1zM60.4 242h10.1v10.1H60.4z"/><path class="st5" d="M70.5 242h10.1v10.1H70.5z"/><path class="st4" d="M80.6 242h10.1v10.1H80.6z"/><path class="st0" d="M90.7 242h10.1v10.1H90.7z"/><path d="M100.7 242h10.1v10.1h-10.1zM131 242h10.1v10.1H131z"/><path class="st2" d="M141.1 242h10.1v10.1h-10.1z"/><path class="st5" d="M151.2 242h10.1v10.1h-10.1z"/><path class="st4" d="M161.2 242h10.1v10.1h-10.1z"/><path d="M171.3 252.1h10.1v10.1h-10.1zM171.3 242h10.1v10.1h-10.1z"/><path class="st8" d="M110.8 110.9h10.1V121h-10.1z"/><path class="st8" d="M100.8 110.9h10.1V121h-10.1zM120.9 110.9H131V121h-10.1z"/><path d="M50.3 131.1h10.1v10.1H50.3zM60.4 141.8h10.1v10.1H60.4z"/></svg>