<?xml version="1.0" encoding="utf-8"?>
<!-- Generator: Adobe Illustrator 18.1.1, SVG Export Plug-In . SVG Version: 6.00 Build 0)  -->
<svg version="1.1" id="Layer_1" xmlns="http://www.w3.org/2000/svg" xmlns:xlink="http://www.w3.org/1999/xlink" x="0px" y="0px"
	 viewBox="0 0 47.6 47.6" enable-background="new 0 0 47.6 47.6" xml:space="preserve">
<path fill="none" stroke="#FFFFFF" stroke-width="1.4" stroke-miterlimit="10" d="M45.7,5c-1.6,0.7-3.3,1.2-5,1.4
	c1.8-1.1,3.2-2.8,3.9-4.8c-1.7,1-3.6,1.7-5.6,2.1C37.3,2,35,0.9,32.5,0.9c-4.8,0-8.8,3.9-8.8,8.8c0,0.7,0.1,1.4,0.2,2
	c-7.3-0.4-13.7-3.9-18.1-9.2C5.2,3.8,4.7,5.3,4.7,6.9c0,3,1.5,5.7,3.9,7.3c-1.4,0-2.8-0.4-4-1.1c0,0,0,0.1,0,0.1c0,4.2,3,7.8,7,8.6
	c-0.7,0.2-1.5,0.3-2.3,0.3c-0.6,0-1.1-0.1-1.6-0.2c1.1,3.5,4.4,6,8.2,6.1c-3,2.4-6.8,3.8-10.9,3.8c-0.7,0-1.4,0-2.1-0.1
	c3.9,2.5,8.5,3.9,13.4,3.9c16.1,0,24.9-13.4,24.9-24.9c0-0.4,0-0.8,0-1.1C43,8.3,44.5,6.8,45.7,5z"/>
</svg>
