<svg version="1.1" id="Layer_1" xmlns="http://www.w3.org/2000/svg" xmlns:xlink="http://www.w3.org/1999/xlink" x="0px" y="0px"
	 viewBox="0 0 36.8 36.8" enable-background="new 0 0 36.8 36.8" xml:space="preserve">
<g>
	<path fill="none" stroke="#FFFFFF" stroke-width="1.4" stroke-miterlimit="10" d="M9.1,13.7c2.1-2.4,4.9-4.8,7-6.7
		c3.1-2.8,2.9-4.8,2.9-4.8c1.7,2,1.6,4.2,1.4,5.9c-0.4,5.7,1.7,9.1,1.7,9.1l4.4-3.5c1.6,8.6,8.5,12,4.1,17.5c-1.5,1.9-3.4,3-5.3,3.7
		h0c0.2-0.2,0.5-0.4,0.7-0.7c2.5-3.1-1.4-4.9-2.3-9.7l-2.4,2c0,0-5.4-5.1-4.6-9.1c0,0-2.8,3-4.3,6c-1.1,2.3-3.2,9,1.3,12
		C-0.5,31.7,5.8,17.5,9.1,13.7z"/>
</g>
</svg>
