<?xml version="1.0" encoding="utf-8"?>
<!-- Generator: Adobe Illustrator 18.1.1, SVG Export Plug-In . SVG Version: 6.00 Build 0)  -->
<svg version="1.1" id="Layer_1" xmlns="http://www.w3.org/2000/svg" xmlns:xlink="http://www.w3.org/1999/xlink" x="0px" y="0px"
	 viewBox="0 0 54.8 54.8" enable-background="new 0 0 54.8 54.8" xml:space="preserve">
<g>
	<path fill="none" stroke="#FFFFFF" stroke-width="1.4" stroke-miterlimit="10" d="M30.8,21.8l3.4-0.6c0-1-0.1-1.9-0.2-2.9l-3.4-0.1
		c-0.2-1.1-0.6-2.2-1.1-3.2l2.6-2.2c-0.5-0.8-1-1.6-1.6-2.4l-3,1.6c-0.7-0.8-1.6-1.6-2.6-2.2l1.1-3.2c-0.4-0.2-0.8-0.5-1.3-0.7
		c-0.4-0.2-0.9-0.4-1.3-0.6l-1.8,2.9c-1.1-0.4-2.2-0.6-3.3-0.6l-0.6-3.4c-1,0-1.9,0.1-2.9,0.2l-0.1,3.4c-1.1,0.2-2.2,0.6-3.2,1.1
		L9.2,6.4c-0.8,0.5-1.6,1-2.4,1.6l1.6,3c-0.8,0.7-1.6,1.6-2.2,2.6C5.1,13.2,4,12.8,3,12.5c-0.2,0.4-0.5,0.8-0.7,1.3S2,14.6,1.8,15.1
		c0.9,0.5,1.8,1.1,2.9,1.8c-0.4,1.1-0.6,2.2-0.6,3.3l-3.4,0.6c0,1,0.1,1.9,0.2,2.9l3.4,0.1C4.6,24.9,4.9,26,5.4,27l-2.6,2.2
		c0.5,0.8,1,1.6,1.6,2.4l3-1.6c0.7,0.8,1.6,1.6,2.6,2.2l-1.1,3.2c0.4,0.2,0.8,0.5,1.3,0.7c0.4,0.2,0.9,0.4,1.3,0.6l1.8-2.9
		c1.1,0.4,2.2,0.6,3.3,0.6l0.6,3.4c1,0,1.9-0.1,2.9-0.2l0.1-3.4c1.1-0.2,2.2-0.6,3.2-1.1l2.2,2.6c0.8-0.5,1.6-1,2.4-1.6l-1.6-3
		c0.8-0.7,1.6-1.6,2.2-2.6l3.2,1.1c0.2-0.4,0.5-0.8,0.7-1.3c0.2-0.4,0.4-0.9,0.6-1.3l-2.9-1.8C30.5,24,30.7,22.9,30.8,21.8z
		 M23.5,23.9c-1.6,3.4-5.7,4.8-9,3.2c-3.4-1.6-4.8-5.7-3.2-9c1.6-3.4,5.7-4.8,9-3.2C23.7,16.5,25.1,20.6,23.5,23.9z"/>
	<path fill="none" stroke="#FFFFFF" stroke-width="1.4" stroke-miterlimit="10" d="M50.7,11.3L54,9.7c-0.2-0.9-0.5-1.8-0.9-2.6
		l-3.5,0.8c-0.5-0.8-1.1-1.5-1.9-2.1l1.2-3.4c-0.4-0.2-0.8-0.5-1.2-0.7c-0.4-0.2-0.8-0.4-1.3-0.5l-1.9,3C43.5,4,42.5,3.9,41.6,4
		L40,0.8c-0.9,0.2-1.8,0.5-2.6,0.9l0.8,3.5c-0.8,0.5-1.5,1.1-2.1,1.9c-1.2-0.4-2.4-0.8-3.4-1.1c-0.2,0.4-0.5,0.8-0.7,1.2
		c-0.2,0.4-0.4,0.8-0.5,1.3c0.9,0.6,2,1.3,3,1.9c-0.2,0.9-0.3,1.9-0.2,2.8c-1.1,0.6-2.3,1.1-3.2,1.6c0.2,0.9,0.5,1.8,0.9,2.6
		c1.1-0.2,2.3-0.5,3.5-0.8c0.5,0.8,1.1,1.5,1.9,2.1l-1.2,3.4c0.4,0.2,0.8,0.5,1.2,0.7c0.4,0.2,0.8,0.4,1.3,0.5c0.6-0.9,1.3-2,1.9-3
		c0.9,0.2,1.9,0.3,2.8,0.2l1.6,3.2c0.9-0.2,1.8-0.5,2.6-0.9c-0.2-1.1-0.5-2.3-0.8-3.5c0.8-0.5,1.5-1.1,2.1-1.9l3.4,1.1
		c0.2-0.4,0.5-0.8,0.7-1.2c0.2-0.4,0.4-0.9,0.5-1.3l-3-2C50.8,13.1,50.8,12.2,50.7,11.3z M46,13.9c-0.9,1.9-3.2,2.7-5.1,1.8
		c-1.9-0.9-2.7-3.2-1.8-5.1c0.9-1.9,3.2-2.7,5.1-1.8C46.1,9.7,46.9,12,46,13.9z"/>
</g>
</svg>
