<?xml version="1.0" encoding="utf-8"?>
<!-- Generator: Adobe Illustrator 18.1.1, SVG Export Plug-In . SVG Version: 6.00 Build 0)  -->
<svg version="1.1" id="Layer_1" xmlns="http://www.w3.org/2000/svg" xmlns:xlink="http://www.w3.org/1999/xlink" x="0px" y="0px"
	 viewBox="0 0 39.4 39.4" enable-background="new 0 0 39.4 39.4" xml:space="preserve">
<g>
	<path fill="none" stroke="#FFFFFF" stroke-width="1.4" stroke-miterlimit="10" d="M4.2,14.8c1.7-2.6,4-5.1,5.7-7.1
		c2.5-3,2.3-5,2.3-5c1.4,2.2,1.3,4.5,1.2,6.2c-0.4,6,1.4,9.6,1.4,9.6l3.6-3.8c1.3,9.1,7,12.7,3.4,18.5c-1.2,2-2.8,3.2-4.4,3.9h0
		c0.2-0.2,0.4-0.5,0.5-0.7c2-3.2-1.2-5.2-1.9-10.3l-2,2.1c0,0-4.4-5.5-3.8-9.7c0,0-2.3,3.2-3.5,6.3c-0.9,2.4-2.6,9.5,1.1,12.8
		C-3.6,33.9,1.5,18.9,4.2,14.8z"/>
</g>
</svg>
