<svg id="08e4ce60-8cdd-4ac2-894d-a1bf82ab0649" data-name="Layer 1" xmlns="http://www.w3.org/2000/svg" viewBox="0 0 397.22 278.46"><defs><style>.\34 672886e-117-4dd5-b0d3-d3b8e7f04f22{fill:#fff}</style></defs><title>RP3-PressStart2p</title><path class="4672886e-0117-4dd5-b0d3-d3b8e7f04f22" d="M0 121.31V33.62h36.11v35.07h18.06V33.62h54.17v35.07H54.17v35.08H36.11V209H0v-87.69zM126.39 157.85V37.23h108.33v40.21h18.06v80.41H235l-.28 10.95V209H162.5v69.46h-36.11V157.85zm90.28-40.2V77.44H162.5v91.36h54.17v-51.16zM288.88 17.4V0h108.34v34.81h-18.06v34.8H361.1v34.81h18.06v34.81h18.06v69.62h-18.06v34.81h-90.28v-34.81h-18.05V174h36.11v34.81h54.16v-69.58h-54.16v-34.81H325V69.61h18v-34.8h-54.12V17.4z"/></svg>